<svg width="174" height="43" viewBox="0 0 174 43" fill="none" xmlns="http://www.w3.org/2000/svg">
<g id="Group 2">
<path id="Vector" fill-rule="evenodd" clip-rule="evenodd" d="M72.2414 22.0993C72.2148 22.2484 72.157 22.3903 72.0718 22.5156C71.9866 22.6409 71.8759 22.7468 71.747 22.8265C71.4853 23.0001 71.2537 23.087 71.021 23.1738C70.5265 23.3487 70.0043 23.5235 69.452 23.7262C68.8996 23.93 68.3762 24.1338 67.8829 24.2785C67.3017 24.4823 66.7482 24.6572 66.2549 24.8598C65.8774 25.0335 65.4999 25.2373 65.1514 25.5279C64.838 25.813 64.5729 26.1469 64.3663 26.5168C64.1347 26.9232 64.0177 27.4177 64.0177 28.0279C64.0177 29.2484 64.3072 30.1493 64.8897 30.7595C65.4698 31.3408 66.5455 31.6604 68.1157 31.6604C69.7136 31.6604 70.8172 31.3408 71.3984 30.7294C71.9797 30.0902 72.2704 29.2194 72.2704 28.0569V22.0981H72.2414V22.0993ZM68.1157 9.34226C70.9341 9.34226 72.9964 9.8946 74.3338 10.9981C75.6423 12.1028 76.3093 13.4981 76.3093 15.1551V29.3931C76.3093 29.9744 76.1935 30.6136 75.9897 31.2817C75.7859 31.9799 75.3794 32.6191 74.7704 33.1715C74.159 33.7516 73.316 34.2171 72.2704 34.6247C71.2236 35.0022 69.8294 35.2048 68.1435 35.2048C66.4297 35.2048 65.0634 35.0022 64.0177 34.6247C62.971 34.246 62.1292 33.7516 61.5189 33.1715C60.9087 32.5902 60.5011 31.951 60.2985 31.2817C60.0947 30.5846 59.9777 29.9455 59.9777 29.3943V27.127C59.9777 25.9066 60.2985 24.8019 60.9087 23.8142C61.5479 22.8265 62.4198 22.1004 63.5812 21.6928C64.1625 21.489 64.8017 21.2864 65.5578 21.0247C66.285 20.763 67.011 20.5303 67.7081 20.2686C68.4052 20.037 68.9865 19.8042 69.5098 19.6294C70.0332 19.4256 70.3528 19.3387 70.4686 19.2808C70.5844 19.2229 70.7593 19.1349 70.9631 19.0191C71.1657 18.9034 71.3695 18.7285 71.5733 18.5247C71.7771 18.2931 71.9218 18.0314 72.0666 17.7697C72.2125 17.4791 72.2704 17.1306 72.2704 16.7519V15.851C72.2704 15.5326 72.2125 15.2119 72.0666 14.8633C71.9508 14.5159 71.7192 14.2241 71.3984 13.9335C71.0788 13.644 70.6435 13.4113 70.1201 13.2364C69.5967 13.0627 68.9286 12.9747 68.1157 12.9747C66.5177 12.9747 65.4408 13.2943 64.8607 13.9624C64.3593 14.5494 64.0633 15.2842 64.0177 16.0548C64.0177 16.2285 63.8718 16.3455 63.6982 16.3455H60.2104C60.1259 16.3449 60.0449 16.311 59.9851 16.2512C59.9253 16.1914 59.8915 16.1105 59.8909 16.0259V15.1829C59.8909 14.37 60.0368 13.6139 60.3563 12.9168C60.6458 12.2197 61.1403 11.5806 61.8385 11.0572C62.5066 10.5338 63.3496 10.0984 64.3952 9.8066C65.442 9.51711 66.6625 9.34226 68.1157 9.34226ZM12.3494 22.0981C12.3229 22.2472 12.2653 22.389 12.1803 22.5143C12.0953 22.6396 11.9848 22.7456 11.8561 22.8253C11.5944 22.999 11.3628 23.0858 11.1301 23.1727C10.6357 23.3475 10.1123 23.5224 9.56109 23.725C9.00876 23.9288 8.48537 24.1326 7.99209 24.2773C7.40964 24.4811 6.85731 24.656 6.36403 24.8586C5.96775 25.0313 5.59625 25.256 5.25935 25.5268C4.96987 25.7885 4.70818 26.108 4.47543 26.5156C4.24384 26.9221 4.12689 27.4165 4.12689 28.0267C4.12689 29.2472 4.41637 30.1481 4.99766 30.7583C5.57894 31.3396 6.65467 31.6592 8.22367 31.6592C9.82163 31.6592 10.9263 31.3396 11.5076 30.7282C12.0889 30.089 12.3795 29.2183 12.3795 28.0557V22.0981H12.3506H12.3494ZM8.22483 9.34226C11.0433 9.34226 13.1067 9.8946 14.443 10.9981C15.7514 12.1028 16.4196 13.4981 16.4196 15.1551V29.3931C16.4196 29.9744 16.3038 30.6136 16.1 31.2817C15.8962 31.9799 15.4897 32.6191 14.8795 33.1715C14.2693 33.7516 13.4263 34.2171 12.3807 34.6247C11.3339 35.0022 9.93974 35.2048 8.25378 35.2048C6.54003 35.2048 5.17367 35.0022 4.12805 34.6247C3.08127 34.246 2.23945 33.7516 1.62806 33.1715C1.01667 32.589 0.610233 31.951 0.407594 31.2806C0.203797 30.5835 0.0868453 29.9443 0.0868453 29.3931V27.1259C0.0868453 25.9054 0.407594 24.8007 1.01667 23.813C1.65585 22.8253 2.52778 22.0993 3.69151 21.6917C4.27047 21.4879 4.91081 21.2852 5.66695 21.0235C6.39297 20.7618 7.119 20.5291 7.81724 20.2674C8.51432 20.0358 9.0956 19.8031 9.61899 19.6282C10.1412 19.4244 10.462 19.3376 10.5778 19.2797C10.6936 19.2218 10.8672 19.1338 11.0722 19.018C11.2748 18.9022 11.4775 18.7274 11.6813 18.5236C11.8851 18.292 12.031 18.0303 12.1757 17.7686C12.3216 17.4779 12.3795 17.1294 12.3795 16.7508V15.8499C12.3795 15.5314 12.3216 15.2107 12.1757 14.8622C12.0599 14.5148 11.8272 14.223 11.5076 13.9323C11.188 13.6428 10.7515 13.4101 10.2292 13.2353C9.70583 13.0616 9.03655 12.9736 8.22367 12.9736C6.62572 12.9736 5.55 13.2931 4.96987 13.9613C4.46843 14.5483 4.17243 15.283 4.12689 16.0537C4.12689 16.2274 3.98099 16.3443 3.8073 16.3443H0.319591C0.235216 16.3437 0.154451 16.31 0.0946791 16.2505C0.0349074 16.1909 0.000908394 16.1103 0 16.0259L0 15.1829C0 14.37 0.1459 13.6139 0.465491 12.9168C0.754975 12.2197 1.24941 11.5806 1.94765 11.0572C2.61578 10.5338 3.4576 10.0984 4.50438 9.8066C5.52105 9.51711 6.77046 9.34226 8.22367 9.34226H8.22483ZM55.7373 9.34226H58.0613C58.2651 9.34226 58.4099 9.54606 58.352 9.7487L57.568 12.7709C57.5391 12.9168 57.3943 13.0037 57.2774 13.0037H55.6493C54.7786 13.0037 54.0803 13.1195 53.528 13.3522C53.0058 13.5849 52.5692 13.8466 52.2786 14.1662C52.0204 14.437 51.831 14.7658 51.7262 15.125C51.6483 15.4386 51.6094 15.7606 51.6104 16.0838V34.9744C51.6104 35.1481 51.4657 35.294 51.2909 35.294H47.8031C47.7187 35.2931 47.6379 35.2591 47.5782 35.1994C47.5184 35.1396 47.4845 35.0589 47.4836 34.9744V15.2709C47.4836 14.9212 47.5415 14.399 47.6874 13.7308C47.8031 13.0627 48.1528 12.4224 48.704 11.7542C49.2564 11.1151 50.0704 10.5338 51.1751 10.0683C52.2496 9.57501 53.7897 9.34226 55.7373 9.34226ZM43.9669 28.4922V29.3642C43.9669 29.7417 43.909 30.265 43.7631 30.9332C43.6473 31.5724 43.2988 32.2416 42.7464 32.8808C42.1941 33.52 41.3801 34.1013 40.2766 34.5656C39.1719 35.0311 37.6608 35.2639 35.7143 35.2639C33.7666 35.2639 32.2555 35.0311 31.152 34.5656C30.0473 34.1013 29.2333 33.549 28.681 32.8808C28.1298 32.2416 27.7812 31.5724 27.6643 30.9042C27.5485 30.2361 27.4617 29.7417 27.4617 29.3642V9.66186C27.4617 9.48816 27.6064 9.34226 27.7812 9.34226H31.2388C31.3232 9.34346 31.4038 9.37752 31.4635 9.43719C31.5232 9.49687 31.5572 9.57747 31.5584 9.66186V28.1148C31.5584 28.725 31.6453 29.1604 31.7321 29.5101C31.8201 29.8574 31.9938 30.2071 32.2555 30.4978C32.5172 30.8174 32.9236 31.0791 33.476 31.2817C33.9994 31.4855 34.7266 31.6025 35.6263 31.6025C36.5561 31.6025 37.3122 31.4855 37.8646 31.2817C38.4157 31.0791 38.8233 30.8174 39.114 30.5267C39.4035 30.2361 39.6084 29.9165 39.6953 29.568C39.7821 29.2194 39.8979 28.9288 39.8979 28.0858V9.66186C39.8988 9.57707 39.9329 9.49601 39.9928 9.43605C40.0528 9.37609 40.1339 9.34201 40.2187 9.34111H43.6763C43.7606 9.3423 43.8412 9.37636 43.9009 9.43604C43.9606 9.49571 43.9946 9.57631 43.9958 9.6607V28.4911H43.9669V28.4922ZM20.1968 0.013916H23.6544C23.7387 0.0151132 23.8193 0.0491686 23.879 0.108846C23.9387 0.168523 23.9727 0.249119 23.9739 0.333507V34.9443C23.9727 35.0287 23.9387 35.1093 23.879 35.1689C23.8193 35.2286 23.7387 35.2627 23.6544 35.2639H20.1968C20.112 35.2633 20.0309 35.2292 19.971 35.1692C19.9112 35.1091 19.8775 35.0279 19.8772 34.9431V0.333507C19.8772 0.159816 20.0219 0.013916 20.1968 0.013916Z" fill="white"/>
<g id="Group">
<mask id="mask0_1_89" style="mask-type:alpha" maskUnits="userSpaceOnUse" x="82" y="0" width="5" height="36">
<g id="b">
<path id="Vector_2" d="M86.1112 0H82.2715V35.0369H86.1112V0Z" fill="white"/>
</g>
</mask>
<g mask="url(#mask0_1_89)">
<path id="Vector_3" fill-rule="evenodd" clip-rule="evenodd" d="M83.1496 35.0369C82.5474 35.0369 82.2695 34.759 82.2695 34.1568V0.880033C82.2695 0.277905 82.5474 0 83.1496 0H85.2339C85.836 0 86.1127 0.277905 86.1127 0.880033V34.1568C86.1127 34.759 85.8348 35.0369 85.2327 35.0369H83.1507H83.1496Z" fill="#EC2F46"/>
</g>
</g>
<path id="Vector_4" fill-rule="evenodd" clip-rule="evenodd" d="M109.815 20.58C109.815 16.6905 108.38 14.9316 105.093 14.9316C101.805 14.9316 100.37 16.6917 100.37 20.58V34.1904C100.37 34.7926 100.092 35.0705 99.4913 35.0705H97.407C96.806 35.0705 96.5281 34.7926 96.5281 34.1904V20.1643C96.5281 14.6097 99.5376 11.6002 105.093 11.6002C110.649 11.6002 113.657 14.6097 113.657 20.1643V34.1916C113.657 34.7937 113.38 35.0716 112.777 35.0716H110.694C110.092 35.0716 109.814 34.7937 109.814 34.1916V20.5812L109.815 20.58ZM130.185 25.6854V20.6854C130.185 16.7496 128.656 14.898 125.277 14.898C121.945 14.898 120.416 16.7507 120.416 20.6854V25.6854C120.416 29.7127 121.945 31.5179 125.277 31.5179C128.565 31.5179 130.185 29.5737 130.185 25.6854ZM134.027 34.8053C134.027 39.9442 130.741 43 125.324 43C122.269 43 119.768 42.1663 117.824 40.4526C117.407 40.082 117.361 39.6663 117.685 39.2031L118.565 37.9526C118.889 37.4442 119.306 37.3979 119.769 37.8148C121.296 39.0653 123.055 39.6675 125.092 39.6675C128.426 39.6675 130.185 37.8611 130.185 34.5274V32.5369H130.092C128.934 34.0654 127.13 34.8528 124.675 34.8528C119.445 34.8528 116.574 31.7958 116.574 26.1022V20.3149C116.574 14.6201 119.583 11.5643 125.277 11.5643C130.972 11.5643 134.027 14.6213 134.027 20.3149V34.8053ZM153.841 27.1895C153.841 32.699 150.925 35.6158 145.416 35.6158C139.907 35.6158 136.99 32.6978 136.99 27.1895V13.0233C136.99 12.4212 137.268 12.1433 137.87 12.1433H139.954C140.555 12.1433 140.833 12.4212 140.833 13.0233V26.8653C140.833 30.6147 142.269 32.2821 145.463 32.2821C148.656 32.2821 150.092 30.6147 150.092 26.8653V13.0233C150.092 12.4212 150.37 12.1433 150.972 12.1433H152.961C153.563 12.1433 153.841 12.4212 153.841 13.0233V27.1895ZM169.768 26.2435V24.4383H165.231C162.128 24.4383 160.37 25.7352 160.37 28.2815C160.37 30.7815 161.851 32.0309 164.813 32.0309C168.101 32.0309 169.768 30.0855 169.768 26.2435ZM173.61 20.3183V26.614C173.61 32.3088 170.554 35.3646 164.813 35.3646C159.49 35.3646 156.527 32.8183 156.527 28.2351C156.527 23.7898 159.445 21.2435 164.768 21.2435H169.768V20.6877C169.768 16.4763 168.054 14.6699 164.49 14.6699C162.822 14.6699 161.295 15.272 159.907 16.43C159.443 16.8468 159.027 16.8468 158.656 16.3373L157.683 14.9941C157.359 14.531 157.406 14.1141 157.822 13.7436C159.814 12.1236 162.129 11.3374 164.813 11.3374C170.554 11.3374 173.61 14.392 173.61 20.3183ZM92.9593 8.31862C92.8528 8.47815 92.7079 8.60839 92.538 8.6974C92.368 8.78641 92.1785 8.83136 91.9867 8.82811H90.09C89.4878 8.82811 89.2574 8.41126 89.5805 7.90176L93.0508 2.30429C93.2824 1.98007 93.5603 1.7948 93.976 1.7948H96.381C97.0758 1.7948 97.2611 2.21166 96.8442 2.76747L92.9582 8.31862H92.9593ZM90.2741 35.0091C89.672 35.0091 89.394 34.7312 89.394 34.1302V12.9909C89.394 12.3888 89.672 12.1109 90.2741 12.1109H92.3561C92.9582 12.1109 93.2361 12.3888 93.2361 12.9909V34.1314C93.2361 34.7335 92.9582 35.0114 92.3561 35.0114H90.2741V35.0091Z" fill="#EC2F46"/>
</g>
</svg>
